PathFileType	4	(X/Y/Z)	/home/nbianco/projects/addbio/data/HamnerRunning2013/Processed/subject20//results/MarkerData/run400.trc
DataRate	CameraRate	NumFrames	NumMarkers	Units	OrigDataRate	OrigDataStartFrame	OrigNumFrames
119.99	119.99	9	42	m	119.99	29	232
Frame#	Time	C7			CLAV			LACR			LASI			LCAL			LFAradius			LFAsuperior			LFAulna			LLEL			LMEL			LMT5			LPSI			LTB1			LTB2			LTB3			LTH1			LTH2			LTH3			LTOE			LUA1			LUA2			LUA3			RACR			RASI			RCAL			RFAradius			RFAsuperior			RFAulna			RLEL			RMEL			RMT5			RPSI			RTB1			RTB2			RTB3			RTH1			RTH2			RTH3			RTOE			RUA1			RUA2			RUA3		
		X1	Y1	Z1	X2	Y2	Z2	X3	Y3	Z3	X4	Y4	Z4	X5	Y5	Z5	X6	Y6	Z6	X7	Y7	Z7	X8	Y8	Z8	X9	Y9	Z9	X10	Y10	Z10	X11	Y11	Z11	X12	Y12	Z12	X13	Y13	Z13	X14	Y14	Z14	X15	Y15	Z15	X16	Y16	Z16	X17	Y17	Z17	X18	Y18	Z18	X19	Y19	Z19	X20	Y20	Z20	X21	Y21	Z21	X22	Y22	Z22	X23	Y23	Z23	X24	Y24	Z24	X25	Y25	Z25	X26	Y26	Z26	X27	Y27	Z27	X28	Y28	Z28	X29	Y29	Z29	X30	Y30	Z30	X31	Y31	Z31	X32	Y32	Z32	X33	Y33	Z33	X34	Y34	Z34	X35	Y35	Z35	X36	Y36	Z36	X37	Y37	Z37	X38	Y38	Z38	X39	Y39	Z39	X40	Y40	Z40	X41	Y41	Z41	X42	Y42	Z42

30	0.325	0.702651	1.53625	-0.329744	0.827742	1.44613	-0.335026	0.692989	1.5063	-0.512648	0.76743	1.04336	-0.476283	0.708789	0.250035	-0.404677	0.6524	1.19673	-0.580757	0.560637	1.31664	-0.680435	0.612067	1.15774	-0.615774	0.509473	1.36567	-0.689546	0.449814	1.35136	-0.625454	0.892614	0.165074	-0.460152	0.599921	1.0718	-0.429237	0.963935	0.494098	-0.410802	0.88699	0.409493	-0.466391	0.86051	0.331384	-0.392524	0.78817	0.919373	-0.523179	0.890668	0.861458	-0.501157	0.905525	0.707238	-0.493356	0.915965	0.189624	-0.372326	0.637756	1.48447	-0.567646	0.563818	1.4608	-0.554615	0.587677	1.42994	-0.630956	0.761811	1.47256	-0.158976	0.747548	1.04054	-0.242795	0.161714	0.299495	-0.305878	0.939136	1.21994	-0.180366	0.842931	1.21952	-0.0448179	0.937469	1.15536	-0.158026	0.775417	1.21522	0.00381666	0.707581	1.17133	-0.0395584	0.211691	0.108023	-0.246553	0.590255	1.07427	-0.339016	0.441084	0.442797	-0.279656	0.366532	0.418616	-0.228543	0.317337	0.309118	-0.293587	0.625526	0.864054	-0.204056	0.627441	0.730711	-0.216679	0.495657	0.656266	-0.231348	0.259304	0.103769	-0.322433	0.771483	1.37161	-0.0915925	0.800912	1.30651	-0.0962167	0.727961	1.28559	-0.02047
31	0.333333	0.702891	1.53859	-0.330213	0.828252	1.44886	-0.336777	0.691618	1.50859	-0.512647	0.76809	1.04561	-0.475881	0.738444	0.224197	-0.397596	0.648445	1.20151	-0.581265	0.556258	1.32202	-0.680213	0.607545	1.16263	-0.615574	0.505514	1.37124	-0.688735	0.446607	1.35754	-0.623723	0.928768	0.155667	-0.454534	0.601049	1.07606	-0.428952	0.970342	0.490508	-0.409549	0.900853	0.398654	-0.463503	0.882182	0.319149	-0.38856	0.787663	0.920094	-0.524162	0.889134	0.859741	-0.502569	0.901179	0.705447	-0.49203	0.950711	0.183943	-0.366753	0.636209	1.48807	-0.566883	0.562559	1.46519	-0.553277	0.585239	1.43475	-0.630571	0.764122	1.47598	-0.160458	0.749996	1.04562	-0.244264	0.148538	0.322068	-0.305412	0.937048	1.22371	-0.185377	0.845302	1.22362	-0.0469568	0.936093	1.15921	-0.163457	0.77912	1.21969	0.00365423	0.709699	1.17603	-0.0378133	0.183245	0.126953	-0.244059	0.592065	1.07882	-0.339104	0.433043	0.447375	-0.278791	0.357731	0.426788	-0.227546	0.301991	0.321316	-0.29282	0.625005	0.867991	-0.20354	0.626679	0.734188	-0.214284	0.496049	0.659801	-0.23012	0.231305	0.118952	-0.320678	0.775016	1.37581	-0.0928026	0.804669	1.31045	-0.0963941	0.731557	1.29058	-0.0202105
32	0.341667	0.703323	1.54033	-0.330882	0.828717	1.45091	-0.338527	0.690986	1.51021	-0.513048	0.768567	1.04677	-0.475391	0.76762	0.200535	-0.390255	0.645288	1.20516	-0.581887	0.552578	1.32628	-0.679676	0.603863	1.16635	-0.615464	0.502173	1.37576	-0.687911	0.44412	1.36232	-0.621903	0.962562	0.148338	-0.449273	0.601741	1.07945	-0.428456	0.974753	0.486249	-0.408037	0.913371	0.387878	-0.460643	0.902288	0.307841	-0.384562	0.786154	0.919496	-0.52595	0.886833	0.856129	-0.504404	0.896305	0.7023	-0.49152	0.982989	0.179982	-0.361479	0.63529	1.49072	-0.566455	0.56181	1.46793	-0.552199	0.583292	1.43848	-0.630154	0.766082	1.4788	-0.161888	0.752615	1.04968	-0.245682	0.134946	0.345173	-0.305684	0.934922	1.22576	-0.189394	0.846833	1.22655	-0.0486987	0.934184	1.16135	-0.168056	0.781608	1.22338	0.00346707	0.711074	1.17993	-0.0365976	0.156663	0.148998	-0.24164	0.59405	1.08234	-0.339145	0.426204	0.451302	-0.277735	0.349444	0.435265	-0.226868	0.287397	0.334408	-0.292363	0.626284	0.870455	-0.202861	0.628703	0.735864	-0.213209	0.498829	0.661269	-0.228811	0.204594	0.13685	-0.31997	0.777559	1.37921	-0.0938779	0.807688	1.31403	-0.0961203	0.733403	1.29474	-0.0205872
33	0.35	0.704011	1.54149	-0.33175	0.82908	1.45223	-0.340163	0.691125	1.51118	-0.513868	0.768829	1.04704	-0.474887	0.795536	0.179419	-0.382914	0.643082	1.2077	-0.582668	0.549716	1.32938	-0.679144	0.601159	1.16893	-0.615474	0.499548	1.37919	-0.687055	0.442372	1.36566	-0.620041	0.993391	0.142995	-0.444246	0.60241	1.08168	-0.427847	0.977258	0.481393	-0.406331	0.924173	0.37755	-0.457772	0.920476	0.297786	-0.380394	0.783776	0.917724	-0.528028	0.884106	0.851117	-0.506388	0.890771	0.697657	-0.491503	1.01219	0.17786	-0.356505	0.635017	1.49247	-0.566385	0.561592	1.46921	-0.551392	0.581851	1.44113	-0.6297	0.767701	1.48095	-0.163235	0.755359	1.05248	-0.247001	0.121994	0.369045	-0.306293	0.932909	1.2261	-0.192421	0.847515	1.22824	-0.049989	0.931969	1.1618	-0.171227	0.782808	1.22622	0.00323778	0.711689	1.18307	-0.0360707	0.132446	0.173367	-0.239252	0.59615	1.0846	-0.339082	0.42083	0.454999	-0.276482	0.342133	0.444466	-0.226481	0.274137	0.348413	-0.29194	0.629404	0.871142	-0.202112	0.633185	0.735582	-0.213652	0.50362	0.660779	-0.22742	0.179989	0.157268	-0.319517	0.778925	1.38176	-0.0946607	0.809835	1.31733	-0.095289	0.733576	1.29794	-0.0214587
34	0.358333	0.704945	1.54209	-0.332823	0.829314	1.45276	-0.341669	0.691899	1.51145	-0.515077	0.768824	1.04662	-0.474404	0.821242	0.161149	-0.375943	0.641963	1.20921	-0.583719	0.547726	1.33129	-0.678937	0.599551	1.17043	-0.615687	0.497664	1.38147	-0.686212	0.441299	1.36755	-0.618268	1.02055	0.13929	-0.43937	0.603318	1.08244	-0.427172	0.978076	0.475975	-0.404699	0.932816	0.367967	-0.454903	0.936328	0.289113	-0.376224	0.780801	0.914869	-0.529727	0.881246	0.844964	-0.508139	0.884338	0.691496	-0.491538	1.03764	0.177419	-0.352047	0.635299	1.49334	-0.566708	0.561873	1.46927	-0.550846	0.580879	1.44266	-0.629274	0.769021	1.48239	-0.164512	0.757625	1.05399	-0.248064	0.11099	0.393918	-0.307012	0.931065	1.22478	-0.194488	0.847333	1.22869	-0.0508291	0.929536	1.16062	-0.172634	0.782664	1.22818	0.00293648	0.711463	1.18552	-0.0362523	0.110764	0.199509	-0.236874	0.597767	1.08555	-0.338761	0.417195	0.458563	-0.275416	0.336615	0.454262	-0.226437	0.26271	0.363168	-0.291463	0.634105	0.870027	-0.201497	0.639475	0.733692	-0.21546	0.510071	0.658601	-0.226033	0.157699	0.179715	-0.318605	0.779104	1.38351	-0.0951618	0.810999	1.32028	-0.094013	0.732305	1.30018	-0.0226629
35	0.366667	0.706026	1.54208	-0.334114	0.82942	1.45245	-0.343112	0.693062	1.51092	-0.516616	0.768501	1.04567	-0.473978	0.843658	0.145841	-0.369721	0.642016	1.20978	-0.585173	0.546583	1.33204	-0.679137	0.599125	1.17097	-0.616224	0.496457	1.38248	-0.68551	0.440772	1.36799	-0.616778	1.04327	0.136645	-0.434697	0.60437	1.08156	-0.426376	0.97754	0.470096	-0.403408	0.938905	0.359247	-0.452142	0.94939	0.281692	-0.372454	0.777646	0.911013	-0.530593	0.878371	0.837828	-0.509541	0.876919	0.684063	-0.491249	1.05858	0.178032	-0.348466	0.635979	1.49328	-0.567474	0.562554	1.4683	-0.550596	0.580312	1.44303	-0.629006	0.770096	1.48308	-0.165794	0.758566	1.05433	-0.248659	0.103042	0.419867	-0.307796	0.929342	1.22187	-0.195611	0.846262	1.228	-0.0512408	0.926801	1.15794	-0.172454	0.781171	1.22929	0.0025433	0.710213	1.18735	-0.0370008	0.0917862	0.227206	-0.234495	0.598065	1.08535	-0.337972	0.415429	0.461825	-0.274941	0.333586	0.464091	-0.226758	0.253494	0.378482	-0.291052	0.639948	0.86739	-0.201186	0.646807	0.730825	-0.218048	0.517796	0.655154	-0.224786	0.137607	0.203685	-0.316892	0.778303	1.38453	-0.0955582	0.811167	1.32271	-0.092569	0.729916	1.30158	-0.0240744
36	0.375	0.70709	1.5414	-0.335638	0.829424	1.45127	-0.344573	0.694351	1.50945	-0.518419	0.767849	1.04426	-0.47369	0.861727	0.133272	-0.364495	0.643255	1.20954	-0.587111	0.546195	1.33162	-0.679631	0.599941	1.17064	-0.617217	0.495803	1.38209	-0.685132	0.440645	1.36694	-0.615787	1.0609	0.134474	-0.430514	0.605165	1.07907	-0.425325	0.976029	0.463976	-0.402512	0.942263	0.351356	-0.449607	0.95925	0.275235	-0.369413	0.774748	0.906336	-0.53069	0.875413	0.829943	-0.510873	0.868788	0.67589	-0.490466	1.07441	0.178759	-0.346032	0.636889	1.49221	-0.568713	0.56348	1.46643	-0.550747	0.580086	1.44213	-0.629053	0.770957	1.48299	-0.167183	0.757851	1.05361	-0.248651	0.0988204	0.446729	-0.308675	0.927601	1.21746	-0.195774	0.844268	1.22628	-0.0512347	0.923573	1.15381	-0.171237	0.778411	1.22957	0.00208367	0.707731	1.18862	-0.0380723	0.0759167	0.256381	-0.232094	0.596711	1.0841	-0.336578	0.415457	0.464528	-0.275149	0.333306	0.473268	-0.227337	0.246794	0.394279	-0.291024	0.646468	0.863693	-0.201174	0.654502	0.72755	-0.220542	0.526366	0.650847	-0.223751	0.119794	0.228883	-0.314496	0.77688	1.3849	-0.0960802	0.810446	1.32434	-0.0912391	0.726766	1.3023	-0.025602
37	0.383333	0.707961	1.53992	-0.337408	0.829364	1.44922	-0.346077	0.695567	1.50691	-0.520415	0.7669	1.04234	-0.473649	0.874681	0.122826	-0.360333	0.645616	1.20859	-0.589509	0.546449	1.33001	-0.680341	0.602027	1.16952	-0.618765	0.495567	1.38019	-0.685265	0.440812	1.36432	-0.615476	1.07308	0.132385	-0.427285	0.605274	1.07512	-0.42388	0.973809	0.457877	-0.401794	0.943018	0.344189	-0.447337	0.965624	0.269408	-0.367106	0.772347	0.901155	-0.530576	0.872208	0.821597	-0.512504	0.860584	0.667634	-0.489248	1.08488	0.178777	-0.34471	0.637882	1.48995	-0.570409	0.564461	1.4637	-0.551439	0.580149	1.43982	-0.629551	0.771605	1.48212	-0.168754	0.756237	1.05182	-0.248087	0.0985972	0.474088	-0.309648	0.925657	1.21159	-0.19497	0.841301	1.22358	-0.0508388	0.919668	1.14828	-0.169522	0.77455	1.22906	0.00163958	0.703938	1.1893	-0.0392263	0.0637228	0.286816	-0.229659	0.59445	1.08175	-0.334616	0.417078	0.46651	-0.275772	0.335596	0.481333	-0.227936	0.242875	0.410561	-0.291707	0.653251	0.859392	-0.201266	0.662114	0.724153	-0.22217	0.535411	0.645908	-0.222841	0.104784	0.255192	-0.311814	0.775195	1.38461	-0.0968671	0.809011	1.3249	-0.0901855	0.723196	1.30249	-0.0271497
38	0.391667	0.708507	1.53752	-0.339417	0.829272	1.44631	-0.347579	0.69661	1.50322	-0.522542	0.765716	1.03982	-0.473942	0.882283	0.113692	-0.357163	0.648982	1.20703	-0.592243	0.547259	1.32717	-0.681383	0.605383	1.16761	-0.620904	0.495657	1.37669	-0.686047	0.441239	1.36005	-0.615964	1.07982	0.130071	-0.425393	0.604516	1.06998	-0.421953	0.970881	0.451944	-0.400912	0.941522	0.337604	-0.445342	0.968431	0.263877	-0.365278	0.77034	0.8958	-0.530911	0.868608	0.813013	-0.514476	0.853072	0.659835	-0.487799	1.09032	0.177592	-0.344142	0.638852	1.48642	-0.572491	0.565318	1.46012	-0.552795	0.580461	1.43604	-0.630572	0.772013	1.48045	-0.170505	0.755287	1.04881	-0.247152	0.102393	0.50134	-0.310662	0.923317	1.20431	-0.19325	0.837313	1.21992	-0.0501604	0.914989	1.14135	-0.167528	0.769791	1.22779	0.00131508	0.69896	1.18941	-0.0403079	0.0556666	0.31803	-0.227181	0.592829	1.07811	-0.332273	0.420092	0.467804	-0.276393	0.34006	0.488222	-0.228285	0.24189	0.427198	-0.293094	0.659932	0.854779	-0.201211	0.669494	0.720592	-0.222633	0.544754	0.640318	-0.221818	0.0933129	0.282407	-0.309197	0.773468	1.38359	-0.0978944	0.806999	1.3242	-0.0894489	0.719462	1.30218	-0.0286002
